<svg width="20" height="20" viewBox="0 0 20 20" fill="none" xmlns="http://www.w3.org/2000/svg">
<path d="M9.99619 15.8334C9.81807 15.8334 9.66998 15.7735 9.55192 15.6537C9.43387 15.5339 9.37484 15.3855 9.37484 15.2084V10.6251H4.7915C4.61442 10.6251 4.46598 10.5648 4.34619 10.4444C4.2264 10.3239 4.1665 10.1745 4.1665 9.99644C4.1665 9.81831 4.2264 9.67022 4.34619 9.55217C4.46598 9.43411 4.61442 9.37508 4.7915 9.37508H9.37484V4.79175C9.37484 4.61466 9.43508 4.46623 9.55557 4.34644C9.67607 4.22664 9.82537 4.16675 10.0035 4.16675C10.1816 4.16675 10.3297 4.22664 10.4478 4.34644C10.5658 4.46623 10.6248 4.61466 10.6248 4.79175V9.37508H15.2082C15.3853 9.37508 15.5337 9.43532 15.6535 9.55581C15.7733 9.67631 15.8332 9.82562 15.8332 10.0037C15.8332 10.1819 15.7733 10.3299 15.6535 10.448C15.5337 10.5661 15.3853 10.6251 15.2082 10.6251H10.6248V15.2084C10.6248 15.3855 10.5646 15.5339 10.4441 15.6537C10.3236 15.7735 10.1743 15.8334 9.99619 15.8334Z" fill="currentColor"/>
</svg>
