<svg width="14" height="14" viewBox="0 0 14 14" fill="none" xmlns="http://www.w3.org/2000/svg">
<g clip-path="url(#clip0_24_73)">
<g filter="url(#filter0_d_24_73)">
<path d="M13.5363 6.85125C13.0217 5.52022 12.1284 4.36914 10.9668 3.54029C9.80514 2.71143 8.42608 2.24113 7.00006 2.1875C5.57403 2.24113 4.19498 2.71143 3.03333 3.54029C1.87169 4.36914 0.978378 5.52022 0.463808 6.85125C0.429056 6.94737 0.429056 7.05263 0.463808 7.14875C0.978378 8.47978 1.87169 9.63086 3.03333 10.4597C4.19498 11.2886 5.57403 11.7589 7.00006 11.8125C8.42608 11.7589 9.80514 11.2886 10.9668 10.4597C12.1284 9.63086 13.0217 8.47978 13.5363 7.14875C13.5711 7.05263 13.5711 6.94737 13.5363 6.85125ZM7.00006 10.9375C4.68131 10.9375 2.23131 9.21813 1.34318 7C2.23131 4.78187 4.68131 3.0625 7.00006 3.0625C9.31881 3.0625 11.7688 4.78187 12.6569 7C11.7688 9.21813 9.31881 10.9375 7.00006 10.9375Z" fill="#FFA500"/>
</g>
<path d="M7 4.375C6.48083 4.375 5.97331 4.52895 5.54163 4.81739C5.10995 5.10583 4.7735 5.5158 4.57482 5.99546C4.37614 6.47511 4.32415 7.00291 4.42544 7.51211C4.52673 8.02131 4.77673 8.48904 5.14385 8.85616C5.51096 9.22327 5.97869 9.47328 6.48789 9.57456C6.99709 9.67585 7.52489 9.62386 8.00454 9.42518C8.4842 9.2265 8.89417 8.89005 9.18261 8.45837C9.47105 8.02669 9.625 7.51918 9.625 7C9.625 6.30381 9.34844 5.63613 8.85616 5.14384C8.36387 4.65156 7.69619 4.375 7 4.375ZM7 8.75C6.65388 8.75 6.31554 8.64736 6.02775 8.45507C5.73997 8.26278 5.51567 7.98947 5.38321 7.6697C5.25076 7.34993 5.2161 6.99806 5.28363 6.65859C5.35115 6.31913 5.51782 6.0073 5.76256 5.76256C6.00731 5.51782 6.31913 5.35115 6.65859 5.28363C6.99806 5.2161 7.34993 5.25076 7.6697 5.38321C7.98947 5.51566 8.26278 5.73997 8.45507 6.02775C8.64736 6.31554 8.75 6.65388 8.75 7C8.75 7.46413 8.56563 7.90925 8.23744 8.23744C7.90925 8.56563 7.46413 8.75 7 8.75Z" fill="#FFA500"/>
</g>
<defs>
<filter id="filter0_d_24_73" x="-3.56226" y="2.1875" width="21.1246" height="17.625" filterUnits="userSpaceOnUse" color-interpolation-filters="sRGB">
<feFlood flood-opacity="0" result="BackgroundImageFix"/>
<feColorMatrix in="SourceAlpha" type="matrix" values="0 0 0 0 0 0 0 0 0 0 0 0 0 0 0 0 0 0 127 0" result="hardAlpha"/>
<feOffset dy="4"/>
<feGaussianBlur stdDeviation="2"/>
<feComposite in2="hardAlpha" operator="out"/>
<feColorMatrix type="matrix" values="0 0 0 0 0 0 0 0 0 0 0 0 0 0 0 0 0 0 0.25 0"/>
<feBlend mode="normal" in2="BackgroundImageFix" result="effect1_dropShadow_24_73"/>
<feBlend mode="normal" in="SourceGraphic" in2="effect1_dropShadow_24_73" result="shape"/>
</filter>
<clipPath id="clip0_24_73">
<rect width="14" height="14" fill="white"/>
</clipPath>
</defs>
</svg>
