<svg width="14" height="16" viewBox="0 0 14 16" fill="none" xmlns="http://www.w3.org/2000/svg">
<path d="M9.66667 3.66667V3.13333C9.66667 2.3866 9.66667 2.01323 9.52134 1.72801C9.39351 1.47713 9.18954 1.27316 8.93865 1.14532C8.65344 1 8.28007 1 7.53333 1H6.46667C5.71993 1 5.34656 1 5.06135 1.14532C4.81046 1.27316 4.60649 1.47713 4.47866 1.72801C4.33333 2.01323 4.33333 2.3866 4.33333 3.13333V3.66667M5.66667 7.33333V10.6667M8.33333 7.33333V10.6667M1 3.66667H13M11.6667 3.66667V11.1333C11.6667 12.2534 11.6667 12.8135 11.4487 13.2413C11.2569 13.6176 10.951 13.9236 10.5746 14.1153C10.1468 14.3333 9.58677 14.3333 8.46667 14.3333H5.53333C4.41323 14.3333 3.85318 14.3333 3.42535 14.1153C3.04903 13.9236 2.74307 13.6176 2.55132 13.2413C2.33333 12.8135 2.33333 12.2534 2.33333 11.1333V3.66667" stroke="#D00000" stroke-width="1.66667" stroke-linecap="round" stroke-linejoin="round"/>
</svg>
